<svg width="22" height="25" viewBox="0 0 22 25" fill="none" xmlns="http://www.w3.org/2000/svg">
<path d="M21.0252 9.65938C20.1752 8.23166 18.7981 7.18124 17.1805 6.72674C15.5629 6.27224 13.8294 6.44866 12.3407 7.21928V1.11902H9.85946V7.21928C8.37078 6.44866 6.63726 6.27224 5.01966 6.72674C3.40207 7.18124 2.02498 8.23166 1.175 9.65938C-1.30627 13.3195 4.89691 24.3 7.37819 24.3C9.85946 24.3 9.85946 23.0799 11.1001 23.0799C12.3407 23.0799 12.3407 24.3 14.822 24.3C17.3033 24.3 23.5065 13.3195 21.0252 9.65938ZM18.8541 13.7832C18.0849 16.7967 16.5713 19.5662 14.4498 21.8599C14.2017 21.8599 13.9163 21.7379 13.7054 21.5549C12.968 20.9685 12.0484 20.6487 11.1001 20.6487C10.1518 20.6487 9.23218 20.9685 8.49476 21.5549C8.28385 21.7379 7.99851 21.8599 7.75038 21.8599C5.62299 19.5739 4.10919 16.802 3.34612 13.7954C3.03596 12.9047 2.97393 11.9409 3.23446 11.0258C3.58758 10.4067 4.09769 9.88801 4.71513 9.52027C5.33258 9.15253 6.03633 8.94826 6.75787 8.92735C7.45263 8.93955 8.13498 9.09816 8.75529 9.40317L9.85946 9.95219H12.3407L13.4449 9.40317C14.0652 9.09816 14.7476 8.93955 15.4423 8.92735C16.9063 8.96395 18.2462 9.75699 18.9657 11.0136C19.2263 11.9287 19.1642 12.8925 18.8541 13.7832ZM9.85946 3.55913C2.88708 7.30468 1.31147 2.07066 1.31147 2.07066C1.31147 2.07066 4.61157 -2.30932 9.85946 3.55913Z" fill="black"/>
</svg>
