<svg width="25" height="24" viewBox="0 0 25 24" fill="none" xmlns="http://www.w3.org/2000/svg">
<path d="M14.08 6.94531L4 11.2472H20.8L18 7.48986" stroke="black" stroke-width="1.519" stroke-linecap="round" stroke-linejoin="round"/>
<path d="M16.3201 8.579C17.5572 8.579 18.5601 7.6038 18.5601 6.40083C18.5601 5.19786 17.5572 4.22266 16.3201 4.22266C15.083 4.22266 14.0801 5.19786 14.0801 6.40083C14.0801 7.6038 15.083 8.579 16.3201 8.579Z" fill="black" stroke="black" stroke-width="1.519"/>
<path d="M17.4399 4.22272L18.5599 1.5" stroke="black" stroke-width="1.519" stroke-linecap="round"/>
<path d="M4.2802 14.001C3.94308 14.1643 3.62948 14.3386 3.34052 14.5216C1.99428 15.3754 1.2002 16.4269 1.2002 17.5639C1.2002 20.4211 6.21444 22.7371 12.4002 22.7371C18.586 22.7371 23.6002 20.4211 23.6002 17.5639C23.6002 16.3986 22.7669 15.3242 21.3602 14.4595" stroke="black" stroke-width="1.519"/>
<path d="M4 11.3018H20.8V17.8363H4V11.3018Z" stroke="black" stroke-width="1.519" stroke-linecap="round" stroke-linejoin="round"/>
<path d="M4 11.3018H21.36" stroke="black" stroke-width="1.519"/>
</svg>
