<svg width="31" height="19" viewBox="0 0 31 19" fill="none" xmlns="http://www.w3.org/2000/svg">
<path d="M30.9366 0.550995C30.8547 0.209597 30.7059 0 30.545 0H0.455015C0.29413 0 0.145258 0.209447 0.0633596 0.550995C-0.0185385 0.892544 -0.0212078 1.31518 0.0563224 1.66286C0.609286 4.14227 2.12446 7.25091 4.01055 9.77564C5.17235 11.3308 7.39743 13.8748 9.70647 14.182V15.4843C9.70647 17.4229 10.346 19 11.1321 19H19.8679C20.654 19 21.2935 17.4229 21.2935 15.4843V14.182C23.6026 13.8748 25.8277 11.3308 26.9895 9.77564C28.8755 7.25091 30.3907 4.14227 30.9437 1.66286C31.0212 1.31518 31.0185 0.892394 30.9366 0.550995ZM19.8679 16.7558H11.1321C10.8478 16.7558 10.6164 16.1853 10.6164 15.4841V14.2125H20.3836V15.4841C20.3836 16.1853 20.1522 16.7558 19.8679 16.7558ZM20.8385 11.9684H10.1615C6.99273 11.9684 2.94211 6.48463 1.35862 2.24408H29.6414C28.0579 6.48463 24.0073 11.9684 20.8385 11.9684Z" fill="black"/>
<path d="M17.9262 9.42521H20.8381C21.3215 9.42521 21.8422 9.28593 22.3856 9.0111C22.6318 8.88663 22.7904 8.2936 22.7399 7.6865C22.6894 7.0794 22.4486 6.68863 22.2028 6.8128C21.7194 7.05726 21.2603 7.18113 20.8381 7.18113H17.9262C17.6749 7.18113 17.4712 7.68351 17.4712 8.30317C17.4712 8.92284 17.6749 9.42521 17.9262 9.42521Z" fill="black"/>
<path d="M24.2362 7.56245C24.2925 7.56245 24.3499 7.53641 24.4054 7.48136C24.5786 7.31006 24.7547 7.12605 24.9289 6.93411C25.1584 6.68157 25.2613 6.01792 25.1589 5.45212C25.0565 4.88616 24.7874 4.63213 24.5579 4.88496C24.3943 5.06524 24.229 5.23788 24.0666 5.39871C23.8334 5.6294 23.7202 6.28272 23.8138 6.8578C23.885 7.29615 24.0557 7.56245 24.2362 7.56245Z" fill="black"/>
</svg>
