<svg width="40" height="24" viewBox="0 0 40 24" fill="none" xmlns="http://www.w3.org/2000/svg">
<path d="M39.9182 0.695994C39.8126 0.264754 39.6205 0 39.4129 0H0.587116C0.379523 0 0.187429 0.264565 0.0817543 0.695994C-0.0239207 1.12742 -0.0273649 1.66128 0.0726741 2.10046C0.786176 5.23234 2.74124 9.15904 5.1749 12.3482C6.67399 14.3126 9.54507 17.5261 12.5245 17.9141V19.5591C12.5245 22.0078 13.3497 24 14.364 24H25.636C26.6503 24 27.4755 22.0078 27.4755 19.5591V17.9141C30.4549 17.5261 33.326 14.3126 34.8251 12.3482C37.2588 9.15904 39.2138 5.23234 39.9273 2.10046C40.0274 1.66128 40.0239 1.12723 39.9182 0.695994ZM25.636 21.1652H14.364C13.9971 21.1652 13.6986 20.4446 13.6986 19.5589V17.9526H26.3014V19.5589C26.3014 20.4446 26.0029 21.1652 25.636 21.1652ZM26.8884 15.118H13.1116C9.02287 15.118 3.79627 8.19112 1.75306 2.83462H38.247C36.2037 8.19112 30.9772 15.118 26.8884 15.118Z" fill="black"/>
<path d="M23.1305 11.9056H26.8879C27.5117 11.9056 28.1835 11.7297 28.8847 11.3825C29.2023 11.2253 29.4069 10.4762 29.3418 9.70934C29.2767 8.94248 28.9659 8.44888 28.6487 8.60573C28.0251 8.91451 27.4326 9.07098 26.8879 9.07098H23.1305C22.8063 9.07098 22.5435 9.70556 22.5435 10.4883C22.5435 11.271 22.8063 11.9056 23.1305 11.9056Z" fill="black"/>
<path d="M31.2725 9.55256C31.3452 9.55256 31.4192 9.51968 31.4909 9.45014C31.7143 9.23376 31.9415 9.00132 32.1663 8.75887C32.4624 8.43988 32.5952 7.60159 32.4631 6.88688C32.3309 6.17199 31.9837 5.85111 31.6877 6.17048C31.4765 6.39819 31.2632 6.61627 31.0537 6.81942C30.7527 7.11082 30.6067 7.93607 30.7274 8.66249C30.8193 9.21619 31.0396 9.55256 31.2725 9.55256Z" fill="black"/>
</svg>
