<svg width="16" height="24" viewBox="0 0 16 24" fill="none" xmlns="http://www.w3.org/2000/svg">
<path d="M5.6 1.79528e-06H10.4C10.9595 -0.000260003 11.5015 0.182726 11.9323 0.517335C12.3631 0.851943 12.6557 1.31715 12.7595 1.83254C12.8633 2.34794 12.7718 2.88114 12.5008 3.33998C12.2298 3.79883 11.7963 4.15449 11.2752 4.3455C11.4688 5.076 12.0384 5.6295 12.9104 6.435L12.9264 6.45C13.5408 7.017 14.2688 7.689 14.9056 8.5845C15.7025 9.71871 16.0813 11.0664 15.984 12.4215C15.9952 12.5295 16 12.639 16 12.75V20.25C16 20.9083 15.8151 21.5549 15.4641 22.125C15.113 22.695 14.608 23.1684 14 23.4975C13.3919 23.8266 12.7021 23.9999 12 23.9999C11.2978 23.9999 10.6081 23.8266 10 23.4975C9.39223 23.8273 8.70226 24.0007 8 24C7.29774 24.0007 6.60778 23.8273 6 23.4975C5.39193 23.8266 4.70216 23.9999 4.00003 23.9999C3.29789 23.9999 2.60812 23.8266 2.00004 23.4975C1.39197 23.1684 0.887017 22.695 0.535937 22.125C0.184856 21.5549 1.78368e-05 20.9083 0 20.25V12.75C0 12.639 0.00480037 12.5295 0.0160004 12.42C0.00557708 12.2802 0.000240281 12.1401 0 12C0 10.005 1.0224 8.232 2.608 7.011C2.7888 6.831 2.9664 6.66 3.1328 6.498L3.136 6.4965C3.9888 5.6715 4.5456 5.109 4.7312 4.3485C4.20855 4.15898 3.77311 3.80398 3.50038 3.34504C3.22765 2.88609 3.13482 2.35215 3.23799 1.83577C3.34116 1.31938 3.63382 0.853129 4.06524 0.517832C4.49665 0.182536 5.03962 -0.000661576 5.6 1.79528e-06ZM14.4 18V12.75C14.4 12.6675 14.3952 12.588 14.3872 12.5085C14.3815 12.4622 14.3804 12.4155 14.384 12.369C14.4712 11.3072 14.1729 10.2489 13.5376 9.366C13.4486 9.24152 13.3557 9.11947 13.2592 9H2.7488C1.92683 9.94652 1.52161 11.1517 1.616 12.369C1.62009 12.4154 1.61956 12.4621 1.6144 12.5085C1.60506 12.5887 1.60026 12.6693 1.6 12.75V18H14.4ZM1.6 19.5V20.25C1.6001 20.6738 1.72786 21.0889 1.96856 21.4476C2.20926 21.8063 2.55312 22.094 2.96055 22.2775C3.36798 22.4611 3.82242 22.533 4.27154 22.485C4.72067 22.4371 5.14622 22.2712 5.4992 22.0065C5.64122 21.8996 5.81788 21.8414 6 21.8414C6.18212 21.8414 6.35878 21.8996 6.5008 22.0065C6.912 22.3155 7.432 22.5 8 22.5C8.568 22.5 9.088 22.3155 9.4992 22.0065C9.64122 21.8996 9.81788 21.8414 10 21.8414C10.1821 21.8414 10.3588 21.8996 10.5008 22.0065C10.8538 22.2712 11.2793 22.4371 11.7285 22.485C12.1776 22.533 12.632 22.4611 13.0394 22.2775C13.4469 22.094 13.7907 21.8063 14.0314 21.4476C14.2721 21.0889 14.3999 20.6738 14.4 20.25V19.5H1.6ZM9.6736 4.5H6.3296C6.0784 5.808 5.1872 6.669 4.3456 7.4805L4.328 7.5H11.7856L11.7184 7.4385C10.864 6.651 9.9376 5.796 9.6736 4.5ZM5.6 3H10.4C10.6122 3 10.8157 2.92098 10.9657 2.78033C11.1157 2.63968 11.2 2.44891 11.2 2.25C11.2 2.05109 11.1157 1.86032 10.9657 1.71967C10.8157 1.57902 10.6122 1.5 10.4 1.5H5.6C5.38783 1.5 5.18434 1.57902 5.03431 1.71967C4.88428 1.86032 4.8 2.05109 4.8 2.25C4.8 2.44891 4.88428 2.63968 5.03431 2.78033C5.18434 2.92098 5.38783 3 5.6 3Z" fill="black"/>
</svg>
