<svg width="28" height="28" viewBox="0 0 28 28" fill="none" xmlns="http://www.w3.org/2000/svg">
<path d="M2 20.2422C2 19.368 2.1596 18.5004 2.5826 17.7928C3.827 15.7091 7.2026 11.4546 14 11.4546C20.798 11.4546 24.173 15.7099 25.4174 17.7928C25.8404 18.5004 26 19.368 26 20.2422C26 21.7693 25.4995 23.2338 24.6087 24.3136C23.7179 25.3934 22.5096 26 21.2498 26H6.7502C5.49037 26 4.28214 25.3934 3.3913 24.3136C2.50047 23.2338 2 21.7693 2 20.2422Z" stroke="black" stroke-width="2.17" stroke-linecap="round" stroke-linejoin="round"/>
<path d="M6.7999 3.45455V6.36364M7.9999 12.9091V15.8182M21.1999 3.45455V6.36364M19.9999 12.9091V15.8182M13.9999 2V6.36364M13.9999 11.4545V17.2727M13.9999 11.4545C18.6847 11.4545 21.7435 13.4764 23.5999 15.4131M13.9999 11.4545C9.3151 11.4545 6.2563 13.4756 4.3999 15.4131" stroke="black" stroke-width="2.17" stroke-linecap="round"/>
</svg>
