<svg width="20" height="28" viewBox="0 0 20 28" fill="none" xmlns="http://www.w3.org/2000/svg">
<path d="M6.7998 5.78947H13.1998V3.26316C13.1998 2.92815 13.0312 2.60686 12.7312 2.36997C12.4311 2.13308 12.0242 2 11.5998 2H8.3998C7.97546 2 7.56849 2.13308 7.26843 2.36997C6.96838 2.60686 6.7998 2.92815 6.7998 3.26316V5.78947Z" stroke="black" stroke-width="2.17" stroke-linecap="round" stroke-linejoin="round"/>
<path d="M13.2 3.89453C13.2 5.94842 14.0112 7.95179 15.52 9.62547L15.6 9.7139C17.1613 11.4453 18.0002 13.5178 18 15.6432V23.4735C18 24.1435 17.6629 24.7861 17.0627 25.2598C16.4626 25.7336 15.6487 25.9998 14.8 25.9998H5.2C4.35131 25.9998 3.53737 25.7336 2.93726 25.2598C2.33714 24.7861 2 24.1435 2 23.4735V15.6419C2 13.5173 2.8384 11.4457 4.4 9.7139L4.48 9.62547C5.98908 7.95198 6.80001 5.94879 6.8 3.89453" stroke="black" stroke-width="2.17" stroke-linecap="round" stroke-linejoin="round"/>
<path d="M2 18.1722C2.64001 17.9549 3.19309 17.6043 3.6 17.1579C3.96347 16.7581 4.44475 16.4342 5.00228 16.2141C5.5598 15.994 6.17681 15.8844 6.8 15.8947C7.42319 15.8844 8.0402 15.994 8.59772 16.2141C9.15525 16.4342 9.63653 16.7581 10 17.1579C10.3635 17.5576 10.8448 17.8816 11.4023 18.1016C11.9598 18.3217 12.5768 18.4313 13.2 18.421C13.8232 18.4313 14.4402 18.3217 14.9977 18.1016C15.5552 17.8816 16.0365 17.5576 16.4 17.1579C16.8065 16.7105 17.3596 16.359 18 16.141" stroke="black" stroke-width="2.17" stroke-linecap="round" stroke-linejoin="round"/>
</svg>
