<svg width="20" height="28" viewBox="0 0 20 28" fill="none" xmlns="http://www.w3.org/2000/svg">
<path d="M2 11.3446C2 11.1197 2.07022 10.8993 2.20267 10.7086L5.33333 6.2002H14.6667L17.7973 10.7086C17.9298 10.8993 18 11.1197 18 11.3446V24.8002C18 25.1185 17.8595 25.4237 17.6095 25.6487C17.3594 25.8738 17.0203 26.0002 16.6667 26.0002H3.33333C2.97971 26.0002 2.64057 25.8738 2.39052 25.6487C2.14048 25.4237 2 25.1185 2 24.8002V11.3446Z" stroke="black" stroke-width="2.17" stroke-linecap="round" stroke-linejoin="round"/>
<path d="M6.66683 19.4V14L10.0002 17.6L13.3335 14V19.4M5.3335 2H14.6668V6.2H5.3335V2Z" stroke="black" stroke-width="2.17" stroke-linecap="round" stroke-linejoin="round"/>
</svg>
