<svg width="28" height="28" viewBox="0 0 28 28" fill="none" xmlns="http://www.w3.org/2000/svg">
<path d="M7.17993 26.0001H20.1298M13.6548 26.0001C16.7459 26.0001 19.7104 24.7132 21.8961 22.4224C24.0818 20.1317 25.3097 17.0248 25.3097 13.7852H2C2 17.0248 3.22792 20.1317 5.41362 22.4224C7.59933 24.7132 10.5638 26.0001 13.6548 26.0001Z" stroke="black" stroke-width="2.17" stroke-linecap="round" stroke-linejoin="round"/>
<path d="M12.8518 13.7848C12.0675 13.7925 11.3094 13.4891 10.7297 12.9355C10.1499 12.3818 9.79126 11.619 9.72572 10.7998C9.66018 9.98069 9.89257 9.16587 10.3763 8.51879C10.86 7.87171 11.5592 7.44023 12.3338 7.31089C12.2098 6.73574 12.237 6.13609 12.4127 5.57592C12.5884 5.01574 12.9058 4.51605 13.3312 4.13013C13.7566 3.74421 14.2739 3.48655 14.8281 3.38463C15.3822 3.28271 15.9524 3.34035 16.4777 3.5514C16.7078 3.17187 17.0103 2.84637 17.3662 2.59538C17.7222 2.34439 18.1238 2.17335 18.5459 2.09303C18.9681 2.01271 19.4015 2.02485 19.8189 2.12868C20.2363 2.23251 20.6287 2.4258 20.9713 2.69635C21.569 2.20399 22.3182 1.95831 23.0771 2.00579C23.836 2.05328 24.5519 2.39064 25.0895 2.95405C25.6271 3.51746 25.949 4.26783 25.9943 5.06319C26.0396 5.85855 25.8052 6.64373 25.3354 7.27017C25.6278 7.67724 25.825 8.15053 25.9112 8.652C25.9973 9.15346 25.9701 9.66912 25.8315 10.1575C25.693 10.6459 25.447 11.0935 25.1135 11.4641C24.7799 11.8348 24.368 12.1183 23.9109 12.2919C24.0291 12.7804 24.0423 13.2903 23.9498 13.7848M14.9496 13.7848L20.1296 8.35595" stroke="black" stroke-width="2.17" stroke-linecap="round" stroke-linejoin="round"/>
<path d="M12.2304 7.33832C11.5201 6.54471 10.5981 5.99378 9.58468 5.75733C8.57126 5.52088 7.51338 5.60989 6.54893 6.01274C5.58448 6.4156 4.75819 7.11362 4.17777 8.01582C3.59735 8.91802 3.28973 9.98256 3.29499 11.0707C3.29499 12.0614 3.55398 12.9843 3.99428 13.7851" stroke="black" stroke-width="2.17" stroke-linecap="round" stroke-linejoin="round"/>
</svg>
