<svg width="24" height="24" viewBox="0 0 24 24" fill="none" xmlns="http://www.w3.org/2000/svg">
<g clip-path="url(#clip0_119_50)">
<path d="M14.8101 4.32996C13.9426 4.32996 13.2367 5.03299 13.2367 5.89727C13.2368 6.76146 13.9426 7.46454 14.8101 7.46454C15.6777 7.46454 16.3836 6.76151 16.3836 5.89727C16.3836 5.03304 15.6777 4.32996 14.8101 4.32996ZM14.8101 6.72982C14.3477 6.72982 13.9714 6.35637 13.9714 5.89727C13.9714 5.43818 14.3477 5.06468 14.8101 5.06468C15.2726 5.06468 15.6489 5.43818 15.6489 5.89727C15.6489 6.35637 15.2727 6.72982 14.8101 6.72982Z" fill="black"/>
<path d="M17.7955 0.95358L17.0696 0.231516C16.9196 0.0822189 16.7202 0 16.5082 0C16.2962 0 16.0968 0.0822189 15.9467 0.231516L15.2209 0.95358C15.0703 1.10339 14.9874 1.30275 14.9874 1.51491C14.9874 1.72697 15.0703 1.92629 15.221 2.07614L15.9468 2.79835C16.0969 2.94755 16.2962 3.02972 16.5082 3.02972C16.7203 3.02972 16.9196 2.94755 17.0697 2.79826L17.7955 2.07614C17.946 1.92629 18.029 1.72697 18.029 1.51496C18.029 1.30285 17.946 1.10358 17.7955 0.95358ZM17.2772 1.55536L16.5515 2.27738C16.5368 2.29196 16.5199 2.295 16.5082 2.295C16.4965 2.295 16.4795 2.29191 16.4648 2.27743L15.7392 1.55536C15.7251 1.54135 15.7221 1.52564 15.7221 1.51491C15.7221 1.50413 15.7251 1.48842 15.7391 1.47441L16.4648 0.752439C16.4795 0.737814 16.4965 0.734767 16.5081 0.734767C16.5198 0.734767 16.5368 0.737861 16.5515 0.752439L17.2772 1.47436C17.2913 1.48838 17.2942 1.50413 17.2942 1.51491C17.2942 1.5256 17.2912 1.54139 17.2772 1.55536Z" fill="black"/>
<path d="M5.18974 6.4052L4.60319 5.82179C4.46861 5.68787 4.28983 5.61414 4.09975 5.61414C3.90967 5.61414 3.73085 5.68792 3.59627 5.82175L3.00967 6.4052C2.87453 6.53964 2.80014 6.71851 2.80014 6.90892C2.80014 7.09923 2.87458 7.27806 3.00963 7.41236L3.59631 7.99605C3.73089 8.12988 3.90967 8.20356 4.09975 8.20356C4.28983 8.20356 4.46866 8.12978 4.60314 7.99595L5.18965 7.41245C5.32479 7.27806 5.39918 7.09919 5.39922 6.90887C5.39927 6.71856 5.32488 6.53968 5.18974 6.4052ZM4.09966 7.46059L3.54517 6.90883L4.09971 6.3572L4.65419 6.90883L4.09966 7.46059Z" fill="black"/>
<path d="M20.4587 7.50595L19.8722 6.9225C19.7377 6.78858 19.5588 6.71484 19.3687 6.71484C19.1786 6.71484 18.9998 6.78863 18.8652 6.92245L18.2786 7.50595C18.1435 7.64039 18.0691 7.81922 18.0691 8.00963C18.0691 8.19994 18.1435 8.37877 18.2786 8.51307L18.8653 9.0968C18.9999 9.23068 19.1787 9.30427 19.3687 9.30427C19.5588 9.30427 19.7376 9.23049 19.8721 9.09666L20.4586 8.51316C20.5938 8.37877 20.6682 8.19994 20.6682 8.00958C20.6683 7.81927 20.5939 7.64044 20.4587 7.50595ZM19.3688 8.56135L18.8143 8.00963L19.3688 7.45795L19.9232 8.00963L19.3688 8.56135Z" fill="black"/>
<path d="M8.09909 12.3048L8.04856 12.2785C7.86842 12.185 7.64674 12.2551 7.55318 12.4351C7.45967 12.6151 7.52979 12.8369 7.70979 12.9305L7.76032 12.9567C7.81446 12.9848 7.8724 12.9982 7.9294 12.9982C8.06215 12.9982 8.19026 12.926 8.2557 12.8001C8.34926 12.6201 8.27914 12.3983 8.09909 12.3048Z" fill="black"/>
<path d="M11.845 4.08964C11.845 3.3222 11.5454 2.60149 11.0015 2.06027C10.6359 1.69638 10.0408 1.69638 9.67506 2.06027L8.27701 3.45124C8.1332 3.59431 8.13263 3.8269 8.2757 3.97071C8.41876 4.11453 8.65135 4.11504 8.79521 3.97198L10.1932 2.58105C10.2731 2.50146 10.4033 2.50146 10.4832 2.58105C10.5492 2.64668 10.6098 2.7162 10.6659 2.78843C10.4403 2.84862 10.2871 3.11398 10.3851 3.33326C10.4393 3.45453 10.5583 3.53871 10.6907 3.5494C10.8146 3.55938 10.9174 3.50553 11.0029 3.4204C11.0732 3.63345 11.1103 3.85854 11.1103 4.08954C11.1103 4.65997 10.8876 5.1957 10.4833 5.59798C9.89917 6.17914 9.05973 6.35441 8.32102 6.125C8.46667 5.94167 8.39293 5.70364 8.22184 5.56958C8.0161 5.40837 7.70166 5.51056 7.63702 5.76659C7.5707 5.71465 7.50648 5.65883 7.4453 5.59803C7.40719 5.56011 7.3862 5.50976 7.3862 5.45637C7.38624 5.40298 7.40719 5.35278 7.4453 5.31486L7.76659 4.99526C7.9104 4.85215 7.91101 4.61956 7.7679 4.4757C7.62479 4.33189 7.39224 4.33137 7.24838 4.47439L6.9271 4.79398C6.7494 4.97075 6.65148 5.20597 6.65143 5.45623C6.65138 5.70659 6.7493 5.94186 6.9271 6.11872C7.48862 6.67761 8.22596 6.95694 8.96359 6.95708C8.77937 6.95708 8.59581 6.95713 8.96429 6.95708C9.33254 6.95703 9.14917 6.95703 8.96504 6.95708C9.70248 6.9568 10.4401 6.67747 11.0014 6.11895C11.5455 5.57778 11.8451 4.85707 11.845 4.08964Z" fill="black"/>
<path d="M9.42368 5.0737L9.38327 5.03353C9.23936 4.89056 9.00677 4.89126 8.8638 5.03508C8.72078 5.17898 8.72149 5.41153 8.8653 5.55459L8.90571 5.59476C8.97738 5.66597 9.07104 5.70155 9.16464 5.70155C9.25905 5.70155 9.35341 5.66541 9.42518 5.59317C9.56824 5.44926 9.56754 5.21672 9.42368 5.0737Z" fill="black"/>
<path d="M10.4342 4.14938L10.3938 4.10912C10.2501 3.96587 10.0175 3.96629 9.87437 4.11005C9.73117 4.25382 9.73159 4.48637 9.87531 4.62952L9.91571 4.66979C9.98739 4.74123 10.0812 4.7769 10.175 4.7769C10.2692 4.7769 10.3635 4.7409 10.4352 4.66885C10.5784 4.52513 10.5779 4.29254 10.4342 4.14938Z" fill="black"/>
<path d="M23.317 13.6193C23.757 12.8346 23.627 11.8446 22.9762 11.1972C22.5915 10.8145 22.0803 10.6038 21.5365 10.6038C21.1861 10.6038 20.847 10.6917 20.5452 10.8594C20.2394 10.753 19.9452 10.6992 19.668 10.6992C19.5704 10.6992 19.4762 10.7065 19.3854 10.72C19.2629 10.265 18.9869 9.85757 18.5954 9.57622C18.4306 9.45782 18.2011 9.49541 18.0828 9.66017C17.9643 9.82494 18.002 10.0544 18.1667 10.1729C18.4454 10.3732 18.6339 10.672 18.6982 11.0019C18.6539 11.036 18.6116 11.0725 18.5718 11.1121C18.3503 11.3324 18.2168 11.6233 18.1733 11.9594C17.9589 11.865 17.7139 11.8163 17.4458 11.8163C17.362 11.8163 17.2764 11.821 17.1891 11.8304C17.2503 11.256 17.1049 10.7598 16.7647 10.4213C16.6917 10.3488 16.6114 10.285 16.5244 10.2301C16.757 10.0374 17.0557 9.92099 17.3816 9.92099C17.5845 9.92099 17.749 9.75655 17.749 9.55363C17.749 9.35071 17.5845 9.18627 17.3816 9.18627C16.7143 9.18627 16.1197 9.50141 15.7397 9.99003C15.6956 9.98718 15.6509 9.98539 15.6055 9.98539C15.5217 9.98539 15.4361 9.99013 15.3489 9.9995C15.4101 9.425 15.2647 8.92888 14.9244 8.59039C14.6378 8.3053 14.2371 8.15459 13.7654 8.15459C13.4672 8.15459 13.1499 8.21333 12.82 8.32934C12.4969 8.14738 12.1332 8.05203 11.7571 8.05203C11.1799 8.05203 10.6372 8.27577 10.2289 8.68194C9.95978 8.94969 9.775 9.2728 9.6768 9.61653L7.94631 7.895C7.75576 7.70539 7.50254 7.60095 7.23329 7.60095C6.964 7.60095 6.71082 7.70539 6.52032 7.89491C5.97648 8.43594 5.65421 9.13916 5.59646 9.896C5.36377 9.7641 5.08604 9.69547 4.77638 9.69547C4.49462 9.69547 4.19537 9.75083 3.88463 9.86024C3.57802 9.68778 3.23354 9.59746 2.87733 9.59746C2.32552 9.59746 1.80689 9.81336 1.41689 10.2054C0.757875 10.8678 0.627094 11.8813 1.07484 12.6832C0.790641 13.5017 0.881766 14.2441 1.3298 14.6945C1.37597 14.7409 1.42552 14.7833 1.47769 14.8223L1.15819 15.1401C0.987048 15.3104 0.892829 15.5369 0.892829 15.7779C0.892829 15.7984 0.893626 15.8187 0.894985 15.8389C0.804703 15.891 0.722485 15.9577 0.652875 16.0383C0.473718 16.2457 0.394781 16.5197 0.436218 16.79C0.684094 18.4105 1.50952 19.8946 2.76043 20.9687C3.5154 21.617 4.39716 22.0896 5.34127 22.3648C5.29402 22.4706 5.26716 22.5875 5.26716 22.7108V23.1474C5.26716 23.6175 5.64957 24 6.11954 24H17.6158C18.0858 24 18.4681 23.6175 18.4681 23.1474V22.7108C18.4681 22.5875 18.4413 22.4707 18.3941 22.3648C18.8378 22.2357 19.2687 22.063 19.6782 21.8484C19.8579 21.7542 19.9272 21.5322 19.833 21.3525C19.7388 21.1728 19.5167 21.1034 19.3371 21.1977C18.6837 21.5402 17.9695 21.7636 17.2375 21.8582H6.49215C5.29365 21.7029 4.16063 21.2027 3.23893 20.4113C2.99888 20.2051 2.77646 19.982 2.57278 19.7446H5.12991C5.33237 19.7446 5.49648 19.5805 5.49648 19.378C5.49648 19.1755 5.33237 19.0114 5.12991 19.0114H2.03274C1.83858 18.7026 1.67227 18.3772 1.53577 18.039H6.38523C6.58773 18.039 6.75184 17.8748 6.75184 17.6724C6.75184 17.4699 6.58773 17.3058 6.38523 17.3058H1.29267C1.23858 17.0999 1.1948 16.8908 1.16241 16.6788C1.15359 16.6213 1.17052 16.563 1.20891 16.5185C1.24772 16.4736 1.30435 16.4478 1.36425 16.4478H22.371C22.431 16.4478 22.4876 16.4736 22.5264 16.5185C22.5647 16.5629 22.5817 16.6214 22.5729 16.679C22.3649 18.0387 21.6919 19.3066 20.678 20.2491C20.5294 20.3872 20.5209 20.6197 20.659 20.7683C20.7971 20.9168 21.0295 20.9254 21.1782 20.7872C22.313 19.7325 23.0662 18.3129 23.2991 16.7902C23.3405 16.5197 23.2616 16.2458 23.0825 16.0384C22.9955 15.9377 22.8892 15.8583 22.7715 15.803C22.8782 15.7433 22.9755 15.6705 23.0618 15.5846C23.5047 15.144 23.5959 14.4188 23.317 13.6193ZM6.00179 22.7109C6.00179 22.6458 6.05457 22.593 6.11949 22.593H17.6157C17.6806 22.593 17.7334 22.6458 17.7334 22.7109V23.1475C17.7334 23.2125 17.6806 23.2653 17.6157 23.2653H6.11949C6.05462 23.2653 6.00179 23.2125 6.00179 23.1475V22.7109ZM9.8582 11.3087C9.79741 11.489 9.75442 11.6653 9.72911 11.8358C9.62828 11.84 9.53027 11.8596 9.43788 11.894C9.39611 11.7496 9.34281 11.6085 9.2793 11.472C9.4825 11.4527 9.67792 11.397 9.8582 11.3087ZM8.31564 9.29881L9.62364 10.6001C9.47345 10.6947 9.29908 10.7453 9.11683 10.7453C8.62712 10.7453 8.16826 10.2943 8.16826 9.80352C8.16836 9.62197 8.21973 9.44825 8.31564 9.29881ZM7.03853 8.41569C7.09047 8.36403 7.15961 8.33558 7.23329 8.33558C7.30698 8.33558 7.37608 8.36403 7.42811 8.41574L7.78848 8.77428C7.5587 9.06735 7.43369 9.42571 7.43369 9.80347C7.43369 9.88157 7.43912 9.95877 7.44972 10.0348C7.14657 10.0734 6.88061 10.2573 6.7382 10.5344L6.48601 11.0252C6.37792 10.7474 6.32092 10.4494 6.32092 10.1422C6.32082 9.48922 6.57568 8.87614 7.03853 8.41569ZM1.64091 15.7132V15.7131C1.64827 15.6959 1.65928 15.678 1.6763 15.661L2.58675 14.7553C2.62997 14.7123 2.68055 14.7059 2.70694 14.7059C2.73333 14.7059 2.78405 14.7123 2.82727 14.7553L3.73772 15.6611C3.75474 15.678 3.7658 15.696 3.77312 15.7132H1.64091ZM3.54741 14.4353L3.34538 14.2343C3.17471 14.0646 2.94797 13.9712 2.70694 13.9712C2.46591 13.9712 2.23917 14.0647 2.0686 14.2344L2.01113 14.2916C1.95075 14.2608 1.89675 14.2228 1.85063 14.1764C1.58531 13.9096 1.57477 13.3885 1.82241 12.7825C1.86933 12.6676 1.85517 12.5368 1.78458 12.4347C1.41666 11.9022 1.48102 11.1824 1.93763 10.7234C2.18869 10.4711 2.52239 10.332 2.87724 10.332C3.15 10.332 3.4119 10.4142 3.63451 10.5697C3.73716 10.6415 3.8693 10.6559 3.98504 10.608C4.26699 10.4916 4.5406 10.4301 4.77629 10.4301C5.03223 10.4301 5.23093 10.4993 5.36677 10.6359C5.59867 10.8691 5.63696 11.3003 5.47182 11.8191C5.4301 11.9502 5.46512 12.0936 5.56248 12.1906C5.63481 12.2627 5.73259 12.3001 5.83178 12.2976L5.29688 13.3383C5.22193 13.3413 5.14843 13.3493 5.07568 13.36L3.24479 11.5195C3.10172 11.3757 2.86918 11.3751 2.72527 11.5181C2.58141 11.6612 2.58085 11.8938 2.72391 12.0376L4.31162 13.6336C3.9901 13.8271 3.72455 14.1041 3.54741 14.4353ZM6.35598 14.8414C6.17823 15.0182 6.08031 15.2535 6.08031 15.5038C6.08031 15.5752 6.08903 15.6452 6.10464 15.7131H4.51815C4.50277 15.4965 4.41155 15.295 4.25593 15.1402L4.10565 14.9906C4.28115 14.4576 4.78618 14.0714 5.38056 14.0714C5.85493 14.0714 6.27151 14.3179 6.50992 14.6882L6.35598 14.8414ZM6.06414 13.453L7.39154 10.8703C7.44161 10.773 7.56414 10.7339 7.66136 10.7845C7.74601 10.8285 7.82622 10.8778 7.90239 10.9311C7.70898 11.0537 7.64059 11.3472 7.79139 11.5275C7.96956 11.7404 8.29797 11.6757 8.41225 11.4354C8.61953 11.7243 8.75177 12.0604 8.79916 12.4105L7.56934 13.6341C7.47869 13.4809 7.26301 13.3906 7.09229 13.4446C6.86692 13.5158 6.76637 13.7907 6.89284 13.9911C6.66634 13.7506 6.38298 13.5642 6.06414 13.453ZM8.75083 15.7132C9.12789 15.5344 8.93416 14.9735 8.55222 14.9745C8.11783 14.9756 8.08905 15.5486 8.43616 15.7131H7.74639C7.72633 15.6884 7.70373 15.6655 7.68067 15.6436C7.53676 15.5007 7.30417 15.5014 7.1612 15.6452C7.11203 15.6947 7.12431 15.7005 7.06708 15.7131C7.04068 15.7188 6.97562 15.7219 6.94965 15.7131C6.81161 15.6662 6.77767 15.4582 6.87428 15.3622L9.6221 12.6284C9.70099 12.5498 9.83327 12.5498 9.91216 12.6284C9.97811 12.694 10.0388 12.7634 10.0948 12.8357C9.94347 12.876 9.80552 13.0273 9.78517 13.1828C9.75939 13.3802 9.901 13.5667 10.0986 13.594C10.0201 13.832 9.96996 14.0802 9.94985 14.3346C9.8222 13.9726 9.24119 13.9499 9.19834 14.3801C9.15827 14.7816 9.75972 15.0096 9.93911 14.6061C9.94099 14.9904 10.0108 15.364 10.1429 15.7131H8.75083V15.7132ZM10.9475 15.7131C10.7688 15.3705 10.6735 14.988 10.6735 14.5903C10.6735 13.9374 10.9283 13.3242 11.3911 12.8637C11.4431 12.8121 11.5122 12.7837 11.5859 12.7837C11.6596 12.7837 11.7288 12.8121 11.7807 12.8638L12.1412 13.2224C11.9113 13.5154 11.7864 13.8738 11.7864 14.2515C11.7864 14.6997 11.9617 15.1209 12.2801 15.4377C12.39 15.547 12.5127 15.639 12.6445 15.7131H10.9475V15.7131ZM13.4695 15.1933C13.2157 15.1933 12.9774 15.0951 12.7982 14.9168C12.6194 14.739 12.521 14.5027 12.521 14.2515C12.521 14.07 12.5724 13.8962 12.6683 13.7467L13.9763 15.048C13.8261 15.1427 13.6518 15.1933 13.4695 15.1933ZM14.2946 15.7131C14.3676 15.6721 14.4377 15.6255 14.5044 15.5735L14.6448 15.7131H14.2946ZM13.6744 13.7113C13.8093 13.2597 14.2308 12.9292 14.7287 12.9292C15.1969 12.9292 15.5975 13.2216 15.7559 13.6321C15.7274 13.6549 15.6998 13.679 15.6736 13.705L14.6709 14.7026L13.6744 13.7113ZM17.6716 15.6929L17.6513 15.7131H15.5925C15.5431 15.6029 15.4737 15.5014 15.3853 15.4135L15.1917 15.2208L16.1917 14.2259C16.2978 14.1203 16.4756 14.1202 16.5818 14.2258L17.6716 15.3101C17.7765 15.4144 17.7765 15.5885 17.6716 15.6929ZM17.9679 14.5685L17.0999 13.7049C16.9263 13.5322 16.7004 13.4312 16.4581 13.4144C16.2063 12.7046 15.5265 12.1945 14.7287 12.1945C14.5894 12.1945 14.4538 12.2104 14.3233 12.2398L12.1295 10.0572C11.9857 9.91405 11.7531 9.91466 11.6101 10.0584C11.467 10.2023 11.4676 10.4349 11.6114 10.5779L13.6147 12.571C13.4096 12.7277 13.2388 12.9268 13.115 13.1547L12.9192 12.9599C12.9191 12.9598 12.9191 12.9597 12.919 12.9596L12.2989 12.3428C12.1084 12.1532 11.8551 12.0489 11.5859 12.0489C11.3167 12.0489 11.0635 12.1533 10.873 12.3428C10.8286 12.3869 10.7861 12.4325 10.7447 12.4788C10.6526 12.3496 10.5496 12.2269 10.4351 12.1125C10.4482 11.8874 10.5098 11.6333 10.6214 11.3631C10.6692 11.2474 10.6548 11.1152 10.5831 11.0126C10.19 10.4495 10.2589 9.68825 10.7471 9.20267C11.0167 8.93431 11.3754 8.78661 11.7571 8.78661C12.0505 8.78661 12.3321 8.87403 12.5715 9.03946C12.6737 9.11 12.8045 9.1243 12.9193 9.07728C13.2205 8.95419 13.513 8.88917 13.7655 8.88917C14.0427 8.88917 14.2583 8.9638 14.4063 9.11113C14.6558 9.35933 14.6978 9.81603 14.5215 10.3643C14.4794 10.4952 14.514 10.6387 14.6111 10.7361C14.7081 10.8335 14.8515 10.8685 14.9826 10.8268C15.2054 10.7559 15.415 10.72 15.6055 10.72C15.8828 10.72 16.0985 10.7946 16.2466 10.9419C16.496 11.1902 16.538 11.6469 16.3618 12.1952C16.3197 12.3261 16.3542 12.4696 16.4514 12.567C16.5484 12.6644 16.6918 12.6996 16.8229 12.6577C17.0458 12.5868 17.2553 12.5508 17.4459 12.5508C17.7231 12.5508 17.9388 12.6255 18.0869 12.7729C18.2346 12.9198 18.3095 13.1336 18.3095 13.4083C18.3095 13.7613 18.1866 14.1644 17.9679 14.5685ZM20.5654 15.7131H18.9964C18.9614 15.6219 18.9422 15.5231 18.9422 15.4198C18.9422 14.9607 19.3184 14.5872 19.7809 14.5872C20.2434 14.5872 20.6196 14.9607 20.6196 15.4198C20.6196 15.523 20.6003 15.6218 20.5654 15.7131ZM22.6076 13.3691C22.5359 13.4718 22.5215 13.6038 22.5693 13.7195C22.8109 14.3048 22.8013 14.8073 22.5435 15.0637C22.4107 15.1957 22.2163 15.2627 21.9653 15.2627C21.7907 15.2627 21.5984 15.2296 21.3936 15.1644C21.3729 15.1578 21.3518 15.1537 21.3306 15.151C21.2519 14.6992 20.9787 14.3131 20.5999 14.0821L21.69 12.9975C21.8338 12.8545 21.8344 12.6219 21.6913 12.4781C21.5481 12.3343 21.3156 12.3336 21.1718 12.4768L19.7889 13.8526C19.7862 13.8526 19.7835 13.8524 19.7808 13.8524C19.4756 13.8524 19.1907 13.9397 18.9493 14.0901C19.0113 13.8568 19.0441 13.6277 19.044 13.4083C19.044 13.255 19.0102 12.8387 18.989 12.7728C18.828 12.2722 18.8648 11.8567 19.0898 11.6329C19.2226 11.5008 19.4171 11.4338 19.6679 11.4338C19.8995 11.4338 20.1683 11.4937 20.4455 11.6069C20.5603 11.654 20.6911 11.6397 20.7933 11.5691C21.0116 11.4183 21.2686 11.3385 21.5364 11.3385C21.8846 11.3385 22.2119 11.4733 22.4579 11.718C22.9033 12.1611 22.9662 12.8554 22.6076 13.3691Z" fill="black"/>
<path d="M20.2668 19.5904C20.135 19.4368 19.9035 19.4192 19.7499 19.5511C19.5171 19.7511 19.2642 19.9308 18.9983 20.0854C18.8233 20.187 18.7639 20.4115 18.8655 20.5865C18.9336 20.7036 19.0565 20.769 19.1828 20.769C19.2454 20.769 19.3087 20.7529 19.3667 20.7192C19.6712 20.5423 19.9608 20.3364 20.2275 20.1074C20.3811 19.9755 20.3987 19.744 20.2668 19.5904Z" fill="black"/>
<path d="M21.7638 16.8649C21.5692 16.8096 21.3664 16.9224 21.3108 17.117C21.1353 17.7332 20.8465 18.3036 20.4524 18.8124C20.3284 18.9725 20.3577 19.2027 20.5177 19.3267C20.5845 19.3784 20.6635 19.4034 20.7419 19.4034C20.8514 19.4035 20.9598 19.3546 21.032 19.2614C21.4837 18.6783 21.8146 18.0244 22.016 17.318C22.0714 17.1233 21.9586 16.9204 21.7638 16.8649Z" fill="black"/>
</g>
<defs>
<clipPath id="clip0_119_50">
<rect width="24" height="24" fill="white"/>
</clipPath>
</defs>
</svg>
