<svg width="20" height="20" viewBox="0 0 20 20" fill="none" xmlns="http://www.w3.org/2000/svg">
<path d="M11.6205 20H7.87045C7.62045 20 7.40379 19.9167 7.22045 19.75C7.03712 19.5833 6.92879 19.375 6.89545 19.125L6.59545 16.8C6.37879 16.7167 6.17479 16.6167 5.98345 16.5C5.79145 16.3833 5.60379 16.2583 5.42045 16.125L3.24545 17.025C3.01212 17.1083 2.77879 17.1167 2.54545 17.05C2.31212 16.9833 2.12879 16.8417 1.99545 16.625L0.145455 13.4C0.0121212 13.1833 -0.0295455 12.95 0.0204545 12.7C0.0704545 12.45 0.195455 12.25 0.395455 12.1L2.27045 10.675C2.25379 10.5583 2.24545 10.4457 2.24545 10.337V9.662C2.24545 9.554 2.25379 9.44167 2.27045 9.325L0.395455 7.9C0.195455 7.75 0.0704545 7.55 0.0204545 7.3C-0.0295455 7.05 0.0121212 6.81667 0.145455 6.6L1.99545 3.375C2.11212 3.14167 2.29112 2.99567 2.53245 2.937C2.77445 2.879 3.01212 2.89167 3.24545 2.975L5.42045 3.875C5.60379 3.74167 5.79545 3.61667 5.99545 3.5C6.19545 3.38333 6.39545 3.28333 6.59545 3.2L6.89545 0.875C6.92879 0.625 7.03712 0.416667 7.22045 0.25C7.40379 0.0833333 7.62045 0 7.87045 0H11.6205C11.8705 0 12.0871 0.0833333 12.2705 0.25C12.4538 0.416667 12.5621 0.625 12.5955 0.875L12.8955 3.2C13.1121 3.28333 13.3165 3.38333 13.5085 3.5C13.6998 3.61667 13.8871 3.74167 14.0705 3.875L16.2455 2.975C16.4788 2.89167 16.7121 2.88333 16.9455 2.95C17.1788 3.01667 17.3621 3.15833 17.4955 3.375L19.3455 6.6C19.4788 6.81667 19.5205 7.05 19.4705 7.3C19.4205 7.55 19.2955 7.75 19.0955 7.9L17.2205 9.325C17.2371 9.44167 17.2455 9.554 17.2455 9.662V10.337C17.2455 10.4457 17.2288 10.5583 17.1955 10.675L19.0705 12.1C19.2705 12.25 19.3955 12.45 19.4455 12.7C19.4955 12.95 19.4538 13.1833 19.3205 13.4L17.4705 16.6C17.3371 16.8167 17.1498 16.9627 16.9085 17.038C16.6665 17.1127 16.4288 17.1083 16.1955 17.025L14.0705 16.125C13.8871 16.2583 13.6955 16.3833 13.4955 16.5C13.2955 16.6167 13.0955 16.7167 12.8955 16.8L12.5955 19.125C12.5621 19.375 12.4538 19.5833 12.2705 19.75C12.0871 19.9167 11.8705 20 11.6205 20ZM9.79545 13.5C10.7621 13.5 11.5871 13.1583 12.2705 12.475C12.9538 11.7917 13.2955 10.9667 13.2955 10C13.2955 9.03333 12.9538 8.20833 12.2705 7.525C11.5871 6.84167 10.7621 6.5 9.79545 6.5C8.81212 6.5 7.98279 6.84167 7.30745 7.525C6.63279 8.20833 6.29545 9.03333 6.29545 10C6.29545 10.9667 6.63279 11.7917 7.30745 12.475C7.98279 13.1583 8.81212 13.5 9.79545 13.5ZM9.79545 11.5C9.37879 11.5 9.02479 11.354 8.73345 11.062C8.44145 10.7707 8.29545 10.4167 8.29545 10C8.29545 9.58333 8.44145 9.22933 8.73345 8.938C9.02479 8.646 9.37879 8.5 9.79545 8.5C10.2121 8.5 10.5665 8.646 10.8585 8.938C11.1498 9.22933 11.2955 9.58333 11.2955 10C11.2955 10.4167 11.1498 10.7707 10.8585 11.062C10.5665 11.354 10.2121 11.5 9.79545 11.5ZM8.74545 18H10.7205L11.0705 15.35C11.5871 15.2167 12.0665 15.0207 12.5085 14.762C12.9498 14.504 13.3538 14.1917 13.7205 13.825L16.1955 14.85L17.1705 13.15L15.0205 11.525C15.1038 11.2917 15.1621 11.0457 15.1955 10.787C15.2288 10.529 15.2455 10.2667 15.2455 10C15.2455 9.73333 15.2288 9.47067 15.1955 9.212C15.1621 8.954 15.1038 8.70833 15.0205 8.475L17.1705 6.85L16.1955 5.15L13.7205 6.2C13.3538 5.81667 12.9498 5.49567 12.5085 5.237C12.0665 4.979 11.5871 4.78333 11.0705 4.65L10.7455 2H8.77045L8.42045 4.65C7.90379 4.78333 7.42479 4.979 6.98345 5.237C6.54145 5.49567 6.13712 5.80833 5.77045 6.175L3.29545 5.15L2.32045 6.85L4.47045 8.45C4.38712 8.7 4.32879 8.95 4.29545 9.2C4.26212 9.45 4.24545 9.71667 4.24545 10C4.24545 10.2667 4.26212 10.525 4.29545 10.775C4.32879 11.025 4.38712 11.275 4.47045 11.525L2.32045 13.15L3.29545 14.85L5.77045 13.8C6.13712 14.1833 6.54145 14.504 6.98345 14.762C7.42479 15.0207 7.90379 15.2167 8.42045 15.35L8.74545 18Z" fill="#939393"/>
</svg>
