<svg width="16" height="24" viewBox="0 0 16 24" fill="none" xmlns="http://www.w3.org/2000/svg">
<path d="M5.5 0H10.5C11.3313 0 12 0.501562 12 1.125V3H4V1.125C4 0.501562 4.66875 0 5.5 0ZM0 7.11094C0 6.37969 0.5625 5.71406 1.45 5.4L2.975 4.86562C3.6625 4.62656 4.4125 4.5 5.16875 4.5H10.8313C11.5875 4.5 12.3375 4.62656 13.025 4.86562L14.55 5.4C15.4375 5.70937 16 6.375 16 7.11094C16 7.78594 15.5312 8.37656 14.8187 8.70937C15.5375 9.12187 16 9.76875 16 10.5C16 11.2828 15.4688 11.9719 14.6562 12.375C15.4625 12.7781 16 13.4672 16 14.25C16 15.0328 15.4688 15.7219 14.6562 16.125C15.4625 16.5281 16 17.2172 16 18C16 18.7828 15.4688 19.4719 14.6562 19.875C15.4625 20.2781 16 20.9672 16 21.75C16 22.9922 14.6562 24 13 24H3C1.34375 24 0 22.9922 0 21.75C0 20.9672 0.53125 20.2781 1.34375 19.875C0.53125 19.4719 0 18.7828 0 18C0 17.2172 0.53125 16.5281 1.34375 16.125C0.53125 15.7219 0 15.0328 0 14.25C0 13.4672 0.53125 12.7781 1.34375 12.375C0.53125 11.9719 0 11.2828 0 10.5C0 9.76875 0.4625 9.12187 1.18125 8.70937C0.46875 8.37656 0 7.78594 0 7.11094ZM4 11.25C4 11.6625 4.45 12 5 12H11C11.55 12 12 11.6625 12 11.25C12 10.8375 11.55 10.5 11 10.5H5C4.45 10.5 4 10.8375 4 11.25ZM5 16.5C4.45 16.5 4 16.8375 4 17.25C4 17.6625 4.45 18 5 18H11C11.55 18 12 17.6625 12 17.25C12 16.8375 11.55 16.5 11 16.5H5Z" fill="black"/>
</svg>
