<svg width="21" height="24" viewBox="0 0 21 24" fill="none" xmlns="http://www.w3.org/2000/svg">
<path d="M19.9003 6.14943H17.3672H14.861V1.75097C14.861 0.785436 14.0756 0 13.11 0C12.1449 0 11.3596 0.785436 11.3596 1.75097V6.14938H2.96015H0.427077C0.191156 6.14938 0 6.34058 0 6.57646C0 6.81233 0.191156 7.00353 0.427077 7.00353H2.5514L3.17263 21.1403C3.20634 21.9058 3.81501 22.5104 4.57232 22.5463L4.57513 22.6267C4.60166 23.3968 5.22604 24 5.99661 24H14.3311C15.1015 24 15.726 23.3968 15.7525 22.6267L15.7554 22.5462C16.5126 22.5102 17.1211 21.9056 17.1547 21.1403L17.7759 7.00353H19.9002C20.1361 7.00353 20.3273 6.81233 20.3273 6.57646C20.3273 6.34058 20.1362 6.14943 19.9003 6.14943ZM12.2138 1.75097C12.2138 1.25643 12.6159 0.854108 13.11 0.854108C13.6046 0.854108 14.0069 1.25639 14.0069 1.75097V6.14938H12.2138V1.75097ZM14.899 22.5972C14.8884 22.9048 14.6389 23.1458 14.3311 23.1458H5.99661C5.68879 23.1458 5.43932 22.9048 5.42868 22.5972L5.42699 22.548H14.9007L14.899 22.5972ZM16.3014 21.1028C16.2868 21.4343 16.0155 21.6938 15.6838 21.6938H4.64362C4.31188 21.6938 4.04062 21.4342 4.02604 21.1028L3.83123 16.6697C5.69094 17.9319 7.90709 18.619 10.1639 18.619C12.2243 18.619 14.2443 18.0543 16.0057 16.986C16.1719 16.885 16.3351 16.7783 16.4962 16.6687L16.3014 21.1028ZM16.5441 15.5785C16.2312 15.8214 15.9024 16.0494 15.5626 16.2557C13.9349 17.2429 12.068 17.7648 10.1638 17.7648C7.86003 17.7648 5.60211 16.9901 3.78332 15.5801L3.64288 12.3844H16.6845L16.5441 15.5785ZM16.722 11.5302H3.60538L3.40649 7.00353H16.921L16.722 11.5302Z" fill="black"/>
</svg>
